<?xml version="1.0" standalone="no"?>
<!DOCTYPE svg PUBLIC "-//W3C//DTD SVG 20010904//EN"
 "http://www.w3.org/TR/2001/REC-SVG-20010904/DTD/svg10.dtd">
<svg version="1.0" xmlns="http://www.w3.org/2000/svg"
 width="88.000000pt" height="68.000000pt" viewBox="0 0 88.000000 68.000000"
 preserveAspectRatio="xMidYMid meet">

<g transform="translate(0.000000,68.000000) scale(0.100000,-0.100000)"
fill="#000000" stroke="none">
<path d="M742 644 c-46 -32 -92 -175 -92 -288 0 -47 -17 -70 -62 -81 -37 -10
-65 31 -52 78 12 38 41 49 46 16 4 -32 26 -35 39 -5 10 20 9 30 -5 51 -18 27
-41 31 -79 14 -27 -12 -57 -58 -57 -87 0 -17 -48 -68 -56 -60 -1 2 2 23 6 48
15 73 13 90 -10 90 -11 0 -20 5 -20 10 0 16 -39 12 -71 -7 -29 -17 -69 -84
-69 -115 0 -16 -26 -32 -39 -23 -5 2 -4 26 0 52 12 71 11 83 -6 83 -8 0 -24 5
-35 12 -45 29 -130 -58 -130 -133 0 -59 66 -92 105 -52 16 16 18 16 27 0 10
-19 58 -23 76 -5 8 8 15 8 26 -2 9 -7 30 -10 46 -8 l31 5 -44 -46 c-25 -25
-50 -56 -56 -68 -15 -29 -13 -74 3 -96 36 -47 96 8 128 119 18 61 29 82 56
102 l33 25 22 -22 c29 -26 90 -28 132 -3 28 17 30 17 47 0 34 -34 118 -15 118
27 0 18 -17 28 -25 15 -9 -15 -55 -12 -61 3 -2 7 11 40 31 73 70 116 93 249
48 281 -21 16 -24 16 -51 -3z m26 -97 c-4 -41 -14 -79 -32 -112 l-27 -50 5 60
c7 74 33 165 48 165 7 0 9 -21 6 -63z m-610 -232 c-14 -42 -40 -54 -46 -22 -6
29 7 66 31 90 l22 22 3 -25 c2 -14 -3 -44 -10 -65z m220 33 c-10 -56 -29 -85
-47 -74 -24 15 0 107 31 119 24 10 25 7 16 -45z m-42 -233 c-18 -45 -46 -61
-46 -26 0 21 49 85 58 77 3 -3 -3 -26 -12 -51z"/>
</g>
</svg>
