<?xml version="1.0" standalone="no"?>
<!DOCTYPE svg PUBLIC "-//W3C//DTD SVG 20010904//EN"
 "http://www.w3.org/TR/2001/REC-SVG-20010904/DTD/svg10.dtd">
<svg version="1.0" xmlns="http://www.w3.org/2000/svg"
 width="2916.000000pt" height="1270.000000pt" viewBox="0 0 2916.000000 1270.000000"
 preserveAspectRatio="xMidYMid meet">
<metadata>
Created by potrace 1.16, written by Peter Selinger 2001-2019
</metadata>
<g transform="translate(0.000000,1270.000000) scale(0.100000,-0.100000)"
fill="#f81c10" stroke="none">
<path d="M0 6350 l0 -6350 14580 0 14580 0 0 6350 0 6350 -14580 0 -14580 0 0
-6350z m1950 4832 c72 -24 124 -68 158 -137 11 -22 734 -2066 1608 -4542 874
-2476 1592 -4499 1596 -4495 5 5 2854 8314 3075 8971 22 63 47 116 65 137 62
71 188 94 506 94 385 -1 479 -37 476 -183 -1 -55 -72 -258 -651 -1867 -358
-993 -1161 -3222 -1784 -4955 -866 -2406 -1141 -3159 -1164 -3190 -40 -52
-134 -99 -245 -122 -69 -15 -134 -18 -345 -18 -237 0 -268 2 -350 23 -109 27
-186 70 -220 120 -14 21 -824 2259 -1801 4973 -1576 4376 -1777 4942 -1781
5005 -8 110 26 156 137 188 84 23 97 24 385 22 245 -2 276 -4 335 -24z m9546
17 c152 -26 227 -70 253 -148 15 -46 16 -9958 1 -10013 -32 -115 -180 -168
-471 -168 -298 0 -448 47 -488 153 -8 20 -11 1524 -11 5018 0 4192 2 4995 14
5022 27 65 117 112 263 137 72 12 370 12 439 -1z m12285 -4 c161 -24 248 -67
298 -149 26 -41 3618 -9797 3644 -9895 26 -100 18 -153 -32 -202 -60 -60 -111
-70 -372 -76 -403 -9 -541 25 -606 151 -9 17 -238 648 -509 1401 l-492 1370
-2249 2 -2248 3 -459 -1328 c-253 -730 -472 -1358 -487 -1396 -34 -84 -64
-116 -138 -150 -86 -38 -211 -56 -395 -56 -266 0 -400 26 -461 90 -25 26 -30
40 -33 98 -3 55 2 83 26 152 65 186 3603 9793 3616 9818 24 46 99 108 157 129
30 11 88 26 129 33 41 6 82 13 90 15 52 10 437 3 521 -10z m-3484 -40 c67 -20
124 -83 152 -168 48 -146 48 -392 0 -524 -30 -81 -98 -147 -168 -162 -37 -8
-498 -11 -1571 -11 l-1520 0 0 -4612 c-1 -4920 2 -4656 -47 -4710 -28 -31 -80
-54 -168 -74 -65 -16 -118 -19 -290 -18 -184 0 -220 3 -290 22 -97 27 -139 55
-165 108 -20 40 -20 72 -20 4662 l0 4622 -1552 2 -1553 3 -43 23 c-55 29 -97
89 -125 176 -19 61 -22 94 -22 226 0 162 10 227 48 310 28 60 86 115 133 128
26 7 1198 10 3595 11 3152 1 3561 -1 3606 -14z"/>
<path d="M22472 7376 c-529 -1509 -962 -2747 -962 -2750 0 -3 878 -6 1950 -6
1073 0 1950 2 1950 4 0 5 -1970 5490 -1973 5493 -2 1 -436 -1232 -965 -2741z"/>
</g>
</svg>
